<?xml version="1.0" standalone="no"?>
<!DOCTYPE svg PUBLIC "-//W3C//DTD SVG 20010904//EN"
 "http://www.w3.org/TR/2001/REC-SVG-20010904/DTD/svg10.dtd">
<svg version="1.0" xmlns="http://www.w3.org/2000/svg"
 width="400.000000pt" height="400.000000pt" viewBox="0 0 400.000000 400.000000"
 preserveAspectRatio="xMidYMid meet">
<metadata>
Created by potrace 1.14, written by Peter Selinger 2001-2017
</metadata>
<g transform="translate(0.000000,400.000000) scale(0.100000,-0.100000)"
fill="#000000" stroke="none">
<path d="M960 3982 c-19 -16 -23 -27 -22 -68 3 -59 7 -76 34 -131 l21 -42 -29
-24 c-25 -22 -28 -31 -26 -78 1 -36 12 -74 31 -112 l28 -59 -22 -10 c-35 -16
-44 -46 -33 -113 19 -124 95 -211 229 -263 26 -10 27 -14 25 -78 l-1 -68 -52
-11 c-58 -13 -95 -34 -134 -76 -75 -79 -93 -207 -43 -302 41 -79 115 -134 186
-139 63 -3 68 -11 83 -133 4 -31 33 -113 60 -170 47 -100 155 -227 245 -288
25 -17 48 -35 52 -40 10 -16 7 -309 -4 -345 -12 -40 -30 -48 -128 -56 -90 -8
-150 -16 -170 -21 -15 -4 -64 -10 -170 -20 -148 -14 -287 -65 -357 -132 -7 -6
-23 -20 -35 -30 -69 -55 -162 -210 -174 -289 -3 -21 -9 -57 -14 -79 -4 -22 -8
-212 -8 -423 l0 -382 1467 2 1466 3 1 390 c0 215 -3 404 -7 420 -4 17 -10 48
-14 70 -11 74 -119 254 -172 288 -7 4 -25 19 -40 33 -14 13 -29 24 -34 24 -4
0 -14 6 -21 13 -42 40 -178 82 -298 92 -72 6 -183 20 -225 29 -11 2 -60 7
-110 11 -99 8 -122 16 -134 48 -5 12 -9 97 -9 190 l0 167 46 32 c53 35 143
123 187 183 69 92 126 234 140 348 4 31 12 57 19 58 6 0 20 2 31 4 11 2 36 7
55 10 34 7 83 38 119 76 64 69 82 199 40 286 -39 80 -99 129 -182 148 l-52 12
-1 284 c-2 294 -3 305 -29 378 -23 64 -40 91 -82 137 -51 55 -106 88 -186 113
-49 15 -78 31 -105 59 -20 21 -60 49 -87 62 l-50 25 -641 3 c-615 3 -642 2
-664 -16z"/>
</g>
</svg>
